<mxfile host="app.diagrams.net" modified="2021-04-15T03:56:35.035Z" agent="5.0 (X11; Linux x86_64) AppleWebKit/537.36 (KHTML, like Gecko) Chrome/89.0.4389.114 Safari/537.36" etag="TlEEslqEvcHChkEv_6hc" version="14.5.8" type="github">
  <diagram id="R2lEEEUBdFMjLlhIrx00" name="Page-1">
    <mxGraphModel dx="1364" dy="774" grid="1" gridSize="10" guides="1" tooltips="1" connect="1" arrows="1" fold="1" page="1" pageScale="1" pageWidth="850" pageHeight="1100" math="0" shadow="0" extFonts="Permanent Marker^https://fonts.googleapis.com/css?family=Permanent+Marker">
      <root>
        <mxCell id="0" />
        <mxCell id="1" parent="0" />
        <mxCell id="T7MPYl4RKNeixEKTvY5X-1" value="RCS" style="rounded=1;whiteSpace=wrap;html=1;" vertex="1" parent="1">
          <mxGeometry x="360" y="40" width="120" height="110" as="geometry" />
        </mxCell>
        <mxCell id="T7MPYl4RKNeixEKTvY5X-2" value="Planner" style="rounded=1;whiteSpace=wrap;html=1;fillColor=#99FFFF;" vertex="1" parent="1">
          <mxGeometry x="385" y="120" width="70" height="30" as="geometry" />
        </mxCell>
        <mxCell id="T7MPYl4RKNeixEKTvY5X-4" style="edgeStyle=orthogonalEdgeStyle;rounded=0;orthogonalLoop=1;jettySize=auto;html=1;entryX=1;entryY=0.5;entryDx=0;entryDy=0;" edge="1" parent="1" source="T7MPYl4RKNeixEKTvY5X-3" target="T7MPYl4RKNeixEKTvY5X-1">
          <mxGeometry relative="1" as="geometry" />
        </mxCell>
        <mxCell id="T7MPYl4RKNeixEKTvY5X-3" value="DSP2&lt;br&gt;（IO）" style="rounded=1;whiteSpace=wrap;html=1;fillColor=#FFFFFF;" vertex="1" parent="1">
          <mxGeometry x="550" y="40" width="120" height="110" as="geometry" />
        </mxCell>
        <mxCell id="T7MPYl4RKNeixEKTvY5X-6" style="edgeStyle=orthogonalEdgeStyle;rounded=0;orthogonalLoop=1;jettySize=auto;html=1;entryX=0.5;entryY=1;entryDx=0;entryDy=0;" edge="1" parent="1" source="T7MPYl4RKNeixEKTvY5X-5" target="T7MPYl4RKNeixEKTvY5X-2">
          <mxGeometry relative="1" as="geometry" />
        </mxCell>
        <mxCell id="T7MPYl4RKNeixEKTvY5X-5" value="DSP1" style="rounded=1;whiteSpace=wrap;html=1;fillColor=#99FFFF;" vertex="1" parent="1">
          <mxGeometry x="360" y="210" width="120" height="90" as="geometry" />
        </mxCell>
        <mxCell id="T7MPYl4RKNeixEKTvY5X-8" style="edgeStyle=orthogonalEdgeStyle;rounded=0;orthogonalLoop=1;jettySize=auto;html=1;entryX=0.5;entryY=1;entryDx=0;entryDy=0;" edge="1" parent="1" source="T7MPYl4RKNeixEKTvY5X-7" target="T7MPYl4RKNeixEKTvY5X-5">
          <mxGeometry relative="1" as="geometry" />
        </mxCell>
        <mxCell id="T7MPYl4RKNeixEKTvY5X-7" value="MASTER" style="rounded=1;whiteSpace=wrap;html=1;fillColor=#FFFFFF;" vertex="1" parent="1">
          <mxGeometry x="360" y="330" width="120" height="80" as="geometry" />
        </mxCell>
        <mxCell id="T7MPYl4RKNeixEKTvY5X-10" style="edgeStyle=orthogonalEdgeStyle;rounded=0;orthogonalLoop=1;jettySize=auto;html=1;entryX=0.5;entryY=1;entryDx=0;entryDy=0;" edge="1" parent="1" source="T7MPYl4RKNeixEKTvY5X-9" target="T7MPYl4RKNeixEKTvY5X-7">
          <mxGeometry relative="1" as="geometry" />
        </mxCell>
        <mxCell id="T7MPYl4RKNeixEKTvY5X-9" value="SLAVE" style="rounded=1;whiteSpace=wrap;html=1;fillColor=#FFFFFF;" vertex="1" parent="1">
          <mxGeometry x="360" y="450" width="120" height="80" as="geometry" />
        </mxCell>
      </root>
    </mxGraphModel>
  </diagram>
</mxfile>
